# Blender 4.5.3 LTS
# www.blender.org
mtllib kos_1_pokrivac.mtl
o Cylinder.002
v 0.428840 0.707901 -0.333877
v 0.428839 1.264362 -0.194005
v 0.493976 0.671765 -0.327462
v 0.466688 1.264362 -0.190277
v 0.556609 0.707901 -0.308462
v 0.503082 1.264362 -0.179237
v 0.614332 0.671765 -0.277609
v 0.536623 1.264362 -0.161309
v 0.664926 0.707901 -0.236087
v 0.566021 1.264362 -0.137182
v 0.706448 0.671765 -0.185492
v 0.590148 1.264362 -0.107783
v 0.737302 0.707901 -0.127769
v 0.608076 1.264362 -0.074242
v 0.756301 0.671765 -0.065136
v 0.619116 1.264362 -0.037848
v 0.762717 0.707901 0.000000
v 0.622844 1.264362 -0.000000
v 0.756301 0.671765 0.065136
v 0.619116 1.264362 0.037848
v 0.737302 0.707901 0.127769
v 0.608076 1.264362 0.074242
v 0.706448 0.671765 0.185492
v 0.590148 1.264362 0.107783
v 0.664926 0.707901 0.236087
v 0.566021 1.264362 0.137182
v 0.614332 0.671765 0.277609
v 0.536623 1.264362 0.161309
v 0.556609 0.707901 0.308462
v 0.503082 1.264362 0.179237
v 0.493976 0.671765 0.327462
v 0.466688 1.264362 0.190277
v 0.428840 0.707901 0.333877
v 0.428839 1.264362 0.194005
v 0.363703 0.671765 0.327462
v 0.390991 1.264362 0.190277
v 0.301070 0.707901 0.308462
v 0.354597 1.264362 0.179237
v 0.243347 0.671765 0.277609
v 0.321056 1.264362 0.161309
v 0.192753 0.707901 0.236087
v 0.291658 1.264362 0.137182
v 0.151231 0.671765 0.185492
v 0.267531 1.264362 0.107783
v 0.120377 0.707901 0.127769
v 0.249603 1.264362 0.074242
v 0.101378 0.671765 0.065136
v 0.238563 1.264362 0.037848
v 0.094962 0.707901 0.000000
v 0.234835 1.264362 -0.000000
v 0.101378 0.671765 -0.065136
v 0.238563 1.264362 -0.037848
v 0.120377 0.707901 -0.127769
v 0.249603 1.264362 -0.074242
v 0.151231 0.671765 -0.185492
v 0.267531 1.264362 -0.107783
v 0.192753 0.707901 -0.236087
v 0.291658 1.264362 -0.137182
v 0.243347 0.671765 -0.277609
v 0.321056 1.264362 -0.161309
v 0.301070 0.707901 -0.308462
v 0.354597 1.264362 -0.179237
v 0.363703 0.671765 -0.327462
v 0.390991 1.264362 -0.190277
v 0.428840 1.191097 -0.325266
v 0.492296 1.191097 -0.319016
v 0.553313 1.191097 -0.300506
v 0.609547 1.191097 -0.270449
v 0.658837 1.191097 -0.229998
v 0.699288 1.191097 -0.180708
v 0.729346 1.191097 -0.124474
v 0.747855 1.191097 -0.063456
v 0.754105 1.191097 0.000000
v 0.747855 1.191097 0.074858
v 0.729346 1.191097 0.124474
v 0.699288 1.191097 0.180708
v 0.658837 1.191097 0.229998
v 0.609547 1.191097 0.270449
v 0.553313 1.191097 0.300506
v 0.492296 1.191097 0.319016
v 0.428840 1.191097 0.325266
v 0.365383 1.191097 0.319016
v 0.304366 1.191097 0.300506
v 0.248132 1.191097 0.270449
v 0.198842 1.191097 0.229998
v 0.158391 1.191097 0.180708
v 0.128333 1.191097 0.124474
v 0.109824 1.191097 0.063456
v 0.103574 1.191097 0.000000
v 0.109824 1.191097 -0.063456
v 0.128333 1.191097 -0.124474
v 0.158391 1.191097 -0.180708
v 0.198842 1.191097 -0.229998
v 0.248132 1.191097 -0.270449
v 0.304366 1.191097 -0.300506
v 0.365383 1.191097 -0.319016
v 0.428840 1.231368 -0.293429
v 0.486085 1.231368 -0.287791
v 0.541130 1.231368 -0.271093
v 0.591860 1.231368 -0.243977
v 0.636325 1.231368 -0.207485
v 0.672817 1.231368 -0.163020
v 0.699932 1.231368 -0.112290
v 0.716630 1.231368 -0.057245
v 0.722268 1.231368 0.000000
v 0.716630 1.231368 0.057245
v 0.699932 1.231368 0.112290
v 0.672817 1.231368 0.163020
v 0.636325 1.231368 0.207485
v 0.591860 1.231368 0.243977
v 0.541130 1.231368 0.271093
v 0.486085 1.231368 0.287791
v 0.428840 1.231368 0.293429
v 0.371594 1.231368 0.287791
v 0.316549 1.231368 0.271093
v 0.265819 1.231368 0.243977
v 0.221354 1.231368 0.207485
v 0.184862 1.231368 0.163020
v 0.157747 1.231368 0.112290
v 0.141049 1.231368 0.057245
v 0.135411 1.231368 0.000000
v 0.141049 1.231368 -0.057245
v 0.157747 1.231368 -0.112290
v 0.184862 1.231368 -0.163020
v 0.221354 1.231368 -0.207485
v 0.265819 1.231368 -0.243977
v 0.316549 1.231368 -0.271093
v 0.371594 1.231368 -0.287791
v 0.493976 1.086221 -0.327462
v 0.556609 1.086221 -0.308462
v 0.614332 1.086221 -0.277609
v 0.664926 1.086221 -0.236087
v 0.706448 1.086221 -0.185492
v 0.737302 1.086221 -0.127769
v 0.756301 1.086221 -0.065136
v 0.739540 1.086221 0.000000
v 0.725040 1.086221 0.088237
v 0.737302 1.086221 0.127769
v 0.706448 1.086221 0.185492
v 0.664926 1.086221 0.236087
v 0.614332 1.086221 0.277609
v 0.556609 1.086221 0.308462
v 0.493976 1.086221 0.327462
v 0.428840 1.086221 0.333877
v 0.363703 1.086221 0.327462
v 0.301070 1.086221 0.308462
v 0.243347 1.086221 0.277609
v 0.192753 1.086221 0.236087
v 0.151231 1.086221 0.185492
v 0.120377 1.086221 0.127769
v 0.101378 1.086221 0.065136
v 0.094962 1.086221 0.000000
v 0.101378 1.086221 -0.065136
v 0.120377 1.086221 -0.127769
v 0.151231 1.086221 -0.185492
v 0.192753 1.086221 -0.236087
v 0.243347 1.086221 -0.277609
v 0.301070 1.086221 -0.308462
v 0.363703 1.086221 -0.327462
v 0.428840 1.086221 -0.333877
vn 0.0310 0.9486 -0.3148
vn 0.0918 0.9486 -0.3027
vn 0.1491 0.9486 -0.2790
vn 0.2007 0.9486 -0.2445
vn 0.2445 0.9486 -0.2007
vn 0.2790 0.9486 -0.1491
vn 0.3027 0.9486 -0.0918
vn 0.3148 0.9486 -0.0310
vn 0.3148 0.9486 0.0310
vn 0.3027 0.9486 0.0918
vn 0.2790 0.9486 0.1491
vn 0.2445 0.9486 0.2007
vn 0.2007 0.9486 0.2445
vn 0.1491 0.9486 0.2790
vn 0.0918 0.9486 0.3027
vn 0.0310 0.9486 0.3148
vn -0.0310 0.9486 0.3148
vn -0.0918 0.9486 0.3027
vn -0.1491 0.9486 0.2790
vn -0.2007 0.9486 0.2445
vn -0.2445 0.9486 0.2007
vn -0.2790 0.9486 0.1491
vn -0.3027 0.9486 0.0918
vn -0.3148 0.9486 0.0310
vn -0.3148 0.9486 -0.0310
vn -0.3027 0.9486 -0.0918
vn -0.2790 0.9486 -0.1491
vn -0.2445 0.9486 -0.2007
vn -0.2007 0.9486 -0.2445
vn -0.1491 0.9486 -0.2790
vn -0.0000 1.0000 -0.0000
vn -0.0918 0.9486 -0.3027
vn -0.0310 0.9486 -0.3148
vn -0.0977 0.0814 -0.9919
vn -0.2893 0.0814 -0.9538
vn -0.4698 0.0814 -0.8790
vn -0.6323 0.0814 -0.7704
vn -0.7704 0.0814 -0.6323
vn -0.8790 0.0814 -0.4698
vn -0.9538 0.0814 -0.2893
vn -0.9919 0.0814 -0.0977
vn -0.9919 0.0814 0.0977
vn -0.9538 0.0814 0.2893
vn -0.8790 0.0814 0.4698
vn -0.7704 0.0814 0.6323
vn -0.6323 0.0814 0.7704
vn -0.4698 0.0814 0.8790
vn -0.2893 0.0814 0.9538
vn -0.0977 0.0814 0.9919
vn 0.0977 0.0814 0.9919
vn 0.2893 0.0814 0.9538
vn 0.4698 0.0814 0.8790
vn 0.6323 0.0814 0.7704
vn 0.7704 0.0814 0.6323
vn 0.8790 0.0814 0.4698
vn 0.9954 -0.0650 0.0698
vn 0.9962 -0.0297 0.0814
vn 0.9538 0.0814 -0.2893
vn 0.8790 0.0814 -0.4698
vn 0.7704 0.0814 -0.6323
vn 0.6323 0.0814 -0.7704
vn 0.4698 0.0814 -0.8790
vn 0.2893 0.0814 -0.9538
vn 0.0977 0.0814 -0.9919
vn -0.0770 0.6183 -0.7821
vn -0.2281 0.6183 -0.7521
vn -0.3705 0.6183 -0.6931
vn -0.4986 0.6183 -0.6075
vn -0.6075 0.6183 -0.4986
vn -0.6931 0.6183 -0.3705
vn -0.7521 0.6183 -0.2281
vn -0.7821 0.6183 -0.0770
vn -0.7821 0.6183 0.0770
vn -0.7521 0.6183 0.2281
vn -0.6931 0.6183 0.3705
vn -0.6075 0.6183 0.4986
vn -0.4986 0.6183 0.6075
vn -0.3705 0.6183 0.6931
vn -0.2281 0.6183 0.7521
vn -0.0770 0.6183 0.7821
vn 0.0770 0.6183 0.7821
vn 0.2281 0.6183 0.7521
vn 0.3705 0.6183 0.6931
vn 0.4986 0.6183 0.6075
vn 0.6075 0.6183 0.4986
vn 0.6931 0.6183 0.3705
vn 0.7288 0.6394 0.2452
vn 0.7821 0.6183 -0.0770
vn 0.7521 0.6183 -0.2281
vn 0.6931 0.6183 -0.3705
vn 0.6075 0.6183 -0.4986
vn 0.4986 0.6183 -0.6075
vn 0.3705 0.6183 -0.6931
vn 0.2281 0.6183 -0.7521
vn 0.0770 0.6183 -0.7821
vn 0.0980 -0.0000 -0.9952
vn 0.2903 -0.0000 -0.9569
vn 0.4714 -0.0000 -0.8819
vn 0.6344 -0.0000 -0.7730
vn 0.7730 -0.0000 -0.6344
vn 0.8819 -0.0000 -0.4714
vn 0.9569 -0.0000 -0.2903
vn 0.9970 0.0291 0.0711
vn 0.9867 0.0634 0.1495
vn 0.9979 0.0378 0.0524
vn 0.8819 -0.0000 0.4714
vn 0.7730 -0.0000 0.6344
vn 0.6344 -0.0000 0.7730
vn 0.4714 -0.0000 0.8819
vn 0.2903 -0.0000 0.9569
vn 0.0980 -0.0000 0.9952
vn -0.0980 -0.0000 0.9952
vn -0.2903 -0.0000 0.9569
vn -0.4714 -0.0000 0.8819
vn -0.6344 -0.0000 0.7730
vn -0.7730 -0.0000 0.6344
vn -0.8819 -0.0000 0.4714
vn -0.9569 -0.0000 0.2903
vn -0.9952 -0.0000 0.0980
vn -0.9952 -0.0000 -0.0980
vn -0.9569 -0.0000 -0.2903
vn -0.8819 -0.0000 -0.4714
vn -0.7730 -0.0000 -0.6344
vn -0.6344 -0.0000 -0.7730
vn -0.4714 -0.0000 -0.8819
vn -0.2903 -0.0000 -0.9569
vn -0.0980 -0.0000 -0.9952
vt 1.000000 0.969432
vt 1.000000 1.000000
vt 0.968750 1.000000
vt 0.968750 0.969432
vt 0.937500 1.000000
vt 0.937500 0.969432
vt 0.906250 1.000000
vt 0.906250 0.969432
vt 0.875000 1.000000
vt 0.875000 0.969432
vt 0.843750 1.000000
vt 0.843750 0.969432
vt 0.812500 1.000000
vt 0.812500 0.969432
vt 0.781250 1.000000
vt 0.781250 0.969432
vt 0.750000 1.000000
vt 0.750000 0.969432
vt 0.718750 1.000000
vt 0.718750 0.969432
vt 0.687500 1.000000
vt 0.687500 0.969432
vt 0.656250 1.000000
vt 0.656250 0.969432
vt 0.625000 1.000000
vt 0.625000 0.969432
vt 0.593750 1.000000
vt 0.593750 0.969432
vt 0.562500 1.000000
vt 0.562500 0.969432
vt 0.531250 1.000000
vt 0.531250 0.969432
vt 0.500000 1.000000
vt 0.500000 0.969432
vt 0.468750 1.000000
vt 0.468750 0.969432
vt 0.437500 1.000000
vt 0.437500 0.969432
vt 0.406250 1.000000
vt 0.406250 0.969432
vt 0.375000 1.000000
vt 0.375000 0.969432
vt 0.343750 1.000000
vt 0.343750 0.969432
vt 0.312500 1.000000
vt 0.312500 0.969432
vt 0.281250 1.000000
vt 0.281250 0.969432
vt 0.250000 1.000000
vt 0.250000 0.969432
vt 0.218750 1.000000
vt 0.218750 0.969432
vt 0.187500 1.000000
vt 0.187500 0.969432
vt 0.156250 1.000000
vt 0.156250 0.969432
vt 0.125000 1.000000
vt 0.125000 0.969432
vt 0.093750 1.000000
vt 0.093750 0.969432
vt 0.062500 1.000000
vt 0.062500 0.969432
vt 0.296822 0.485388
vt 0.250000 0.490000
vt 0.203178 0.485388
vt 0.158156 0.471731
vt 0.116663 0.449553
vt 0.080294 0.419706
vt 0.050447 0.383337
vt 0.028269 0.341844
vt 0.014612 0.296822
vt 0.010000 0.250000
vt 0.014612 0.203178
vt 0.028269 0.158156
vt 0.050447 0.116663
vt 0.080294 0.080294
vt 0.116663 0.050447
vt 0.158156 0.028269
vt 0.203178 0.014612
vt 0.250000 0.010000
vt 0.296822 0.014612
vt 0.341844 0.028269
vt 0.383337 0.050447
vt 0.419706 0.080294
vt 0.449553 0.116663
vt 0.471731 0.158156
vt 0.485388 0.203178
vt 0.490000 0.250000
vt 0.485388 0.296822
vt 0.471731 0.341844
vt 0.449553 0.383337
vt 0.419706 0.419706
vt 0.383337 0.449553
vt 0.341844 0.471731
vt 0.031250 1.000000
vt 0.031250 0.969432
vt 0.000000 1.000000
vt 0.000000 0.969432
vt 0.031250 0.838511
vt 0.031250 0.938863
vt 0.000000 0.938863
vt 0.000000 0.838511
vt 0.062500 0.838511
vt 0.062500 0.938863
vt 0.093750 0.838511
vt 0.093750 0.938863
vt 0.125000 0.838511
vt 0.125000 0.938863
vt 0.156250 0.838511
vt 0.156250 0.938863
vt 0.187500 0.838511
vt 0.187500 0.938863
vt 0.218750 0.838511
vt 0.218750 0.938863
vt 0.250000 0.838511
vt 0.250000 0.938863
vt 0.281250 0.838511
vt 0.281250 0.938863
vt 0.312500 0.838511
vt 0.312500 0.938863
vt 0.343750 0.838511
vt 0.343750 0.938863
vt 0.375000 0.838511
vt 0.375000 0.938863
vt 0.406250 0.838511
vt 0.406250 0.938863
vt 0.437500 0.838511
vt 0.437500 0.938863
vt 0.468750 0.838511
vt 0.468750 0.938863
vt 0.500000 0.838511
vt 0.500000 0.938863
vt 0.531250 0.838511
vt 0.531250 0.938863
vt 0.562500 0.838511
vt 0.562500 0.938863
vt 0.593750 0.838511
vt 0.593750 0.938863
vt 0.625000 0.838511
vt 0.625000 0.938863
vt 0.656250 0.838511
vt 0.656250 0.938863
vt 0.687500 0.838511
vt 0.687500 0.938863
vt 0.718750 0.838511
vt 0.718750 0.938863
vt 0.781250 0.838511
vt 0.781250 0.938863
vt 0.750000 0.938863
vt 0.750000 0.838511
vt 0.812500 0.838511
vt 0.812500 0.938863
vt 0.843750 0.838511
vt 0.843750 0.938863
vt 0.875000 0.838511
vt 0.875000 0.938863
vt 0.906250 0.838511
vt 0.906250 0.938863
vt 0.937500 0.838511
vt 0.937500 0.938863
vt 0.968750 0.838511
vt 0.968750 0.938863
vt 1.000000 0.838511
vt 1.000000 0.938863
vt 1.000000 0.500000
vt 0.968750 0.500000
vt 0.937500 0.500000
vt 0.906250 0.500000
vt 0.875000 0.500000
vt 0.843750 0.500000
vt 0.812500 0.500000
vt 0.781250 0.500000
vt 0.750000 0.500000
vt 0.718750 0.500000
vt 0.687500 0.500000
vt 0.656250 0.500000
vt 0.625000 0.500000
vt 0.593750 0.500000
vt 0.562500 0.500000
vt 0.531250 0.500000
vt 0.500000 0.500000
vt 0.468750 0.500000
vt 0.437500 0.500000
vt 0.406250 0.500000
vt 0.375000 0.500000
vt 0.343750 0.500000
vt 0.312500 0.500000
vt 0.281250 0.500000
vt 0.250000 0.500000
vt 0.218750 0.500000
vt 0.187500 0.500000
vt 0.156250 0.500000
vt 0.125000 0.500000
vt 0.093750 0.500000
vt 0.062500 0.500000
vt 0.031250 0.500000
vt 0.000000 0.500000
s 0
usemtl Material.002
f 97/1/1 2/2/1 4/3/1 98/4/1
f 98/4/2 4/3/2 6/5/2 99/6/2
f 99/6/3 6/5/3 8/7/3 100/8/3
f 100/8/4 8/7/4 10/9/4 101/10/4
f 101/10/5 10/9/5 12/11/5 102/12/5
f 102/12/6 12/11/6 14/13/6 103/14/6
f 103/14/7 14/13/7 16/15/7 104/16/7
f 104/16/8 16/15/8 18/17/8 105/18/8
f 105/18/9 18/17/9 20/19/9 106/20/9
f 106/20/10 20/19/10 22/21/10 107/22/10
f 107/22/11 22/21/11 24/23/11 108/24/11
f 108/24/12 24/23/12 26/25/12 109/26/12
f 109/26/13 26/25/13 28/27/13 110/28/13
f 110/28/14 28/27/14 30/29/14 111/30/14
f 111/30/15 30/29/15 32/31/15 112/32/15
f 112/32/16 32/31/16 34/33/16 113/34/16
f 113/34/17 34/33/17 36/35/17 114/36/17
f 114/36/18 36/35/18 38/37/18 115/38/18
f 115/38/19 38/37/19 40/39/19 116/40/19
f 116/40/20 40/39/20 42/41/20 117/42/20
f 117/42/21 42/41/21 44/43/21 118/44/21
f 118/44/22 44/43/22 46/45/22 119/46/22
f 119/46/23 46/45/23 48/47/23 120/48/23
f 120/48/24 48/47/24 50/49/24 121/50/24
f 121/50/25 50/49/25 52/51/25 122/52/25
f 122/52/26 52/51/26 54/53/26 123/54/26
f 123/54/27 54/53/27 56/55/27 124/56/27
f 124/56/28 56/55/28 58/57/28 125/58/28
f 125/58/29 58/57/29 60/59/29 126/60/29
f 126/60/30 60/59/30 62/61/30 127/62/30
f 4/63/31 2/64/31 64/65/31 62/66/31 60/67/31 58/68/31 56/69/31 54/70/31 52/71/31 50/72/31 48/73/31 46/74/31 44/75/31 42/76/31 40/77/31 38/78/31 36/79/31 34/80/31 32/81/31 30/82/31 28/83/31 26/84/31 24/85/31 22/86/31 20/87/31 18/88/31 16/89/31 14/90/31 12/91/31 10/92/31 8/93/31 6/94/31
f 127/62/32 62/61/32 64/95/32 128/96/32
f 128/96/33 64/95/33 2/97/33 97/98/33
f 159/99/34 96/100/34 65/101/34 160/102/34
f 158/103/35 95/104/35 96/100/35 159/99/35
f 157/105/36 94/106/36 95/104/36 158/103/36
f 156/107/37 93/108/37 94/106/37 157/105/37
f 155/109/38 92/110/38 93/108/38 156/107/38
f 154/111/39 91/112/39 92/110/39 155/109/39
f 153/113/40 90/114/40 91/112/40 154/111/40
f 152/115/41 89/116/41 90/114/41 153/113/41
f 151/117/42 88/118/42 89/116/42 152/115/42
f 150/119/43 87/120/43 88/118/43 151/117/43
f 149/121/44 86/122/44 87/120/44 150/119/44
f 148/123/45 85/124/45 86/122/45 149/121/45
f 147/125/46 84/126/46 85/124/46 148/123/46
f 146/127/47 83/128/47 84/126/47 147/125/47
f 145/129/48 82/130/48 83/128/48 146/127/48
f 144/131/49 81/132/49 82/130/49 145/129/49
f 143/133/50 80/134/50 81/132/50 144/131/50
f 142/135/51 79/136/51 80/134/51 143/133/51
f 141/137/52 78/138/52 79/136/52 142/135/52
f 140/139/53 77/140/53 78/138/53 141/137/53
f 139/141/54 76/142/54 77/140/54 140/139/54
f 138/143/55 75/144/55 76/142/55 139/141/55
f 137/145/56 74/146/56 75/144/56 138/143/56
f 135/147/57 72/148/57 73/149/57 136/150/57
f 134/151/58 71/152/58 72/148/58 135/147/58
f 133/153/59 70/154/59 71/152/59 134/151/59
f 132/155/60 69/156/60 70/154/60 133/153/60
f 131/157/61 68/158/61 69/156/61 132/155/61
f 130/159/62 67/160/62 68/158/62 131/157/62
f 129/161/63 66/162/63 67/160/63 130/159/63
f 160/163/64 65/164/64 66/162/64 129/161/64
f 96/100/65 128/96/65 97/98/65 65/101/65
f 95/104/66 127/62/66 128/96/66 96/100/66
f 94/106/67 126/60/67 127/62/67 95/104/67
f 93/108/68 125/58/68 126/60/68 94/106/68
f 92/110/69 124/56/69 125/58/69 93/108/69
f 91/112/70 123/54/70 124/56/70 92/110/70
f 90/114/71 122/52/71 123/54/71 91/112/71
f 89/116/72 121/50/72 122/52/72 90/114/72
f 88/118/73 120/48/73 121/50/73 89/116/73
f 87/120/74 119/46/74 120/48/74 88/118/74
f 86/122/75 118/44/75 119/46/75 87/120/75
f 85/124/76 117/42/76 118/44/76 86/122/76
f 84/126/77 116/40/77 117/42/77 85/124/77
f 83/128/78 115/38/78 116/40/78 84/126/78
f 82/130/79 114/36/79 115/38/79 83/128/79
f 81/132/80 113/34/80 114/36/80 82/130/80
f 80/134/81 112/32/81 113/34/81 81/132/81
f 79/136/82 111/30/82 112/32/82 80/134/82
f 78/138/83 110/28/83 111/30/83 79/136/83
f 77/140/84 109/26/84 110/28/84 78/138/84
f 76/142/85 108/24/85 109/26/85 77/140/85
f 75/144/86 107/22/86 108/24/86 76/142/86
f 74/146/87 106/20/87 107/22/87 75/144/87
f 72/148/88 104/16/88 105/18/88 73/149/88
f 71/152/89 103/14/89 104/16/89 72/148/89
f 70/154/90 102/12/90 103/14/90 71/152/90
f 69/156/91 101/10/91 102/12/91 70/154/91
f 68/158/92 100/8/92 101/10/92 69/156/92
f 67/160/93 99/6/93 100/8/93 68/158/93
f 66/162/94 98/4/94 99/6/94 67/160/94
f 65/164/95 97/1/95 98/4/95 66/162/95
f 1/165/96 160/163/96 129/161/96 3/166/96
f 3/166/97 129/161/97 130/159/97 5/167/97
f 5/167/98 130/159/98 131/157/98 7/168/98
f 7/168/99 131/157/99 132/155/99 9/169/99
f 9/169/100 132/155/100 133/153/100 11/170/100
f 11/170/101 133/153/101 134/151/101 13/171/101
f 13/171/102 134/151/102 135/147/102 15/172/102
f 15/172/103 135/147/103 136/150/103 17/173/103
f 17/173/104 136/150/104 137/145/104 19/174/104
f 19/174/105 137/145/105 138/143/105 21/175/105
f 21/175/106 138/143/106 139/141/106 23/176/106
f 23/176/107 139/141/107 140/139/107 25/177/107
f 25/177/108 140/139/108 141/137/108 27/178/108
f 27/178/109 141/137/109 142/135/109 29/179/109
f 29/179/110 142/135/110 143/133/110 31/180/110
f 31/180/111 143/133/111 144/131/111 33/181/111
f 33/181/112 144/131/112 145/129/112 35/182/112
f 35/182/113 145/129/113 146/127/113 37/183/113
f 37/183/114 146/127/114 147/125/114 39/184/114
f 39/184/115 147/125/115 148/123/115 41/185/115
f 41/185/116 148/123/116 149/121/116 43/186/116
f 43/186/117 149/121/117 150/119/117 45/187/117
f 45/187/118 150/119/118 151/117/118 47/188/118
f 47/188/119 151/117/119 152/115/119 49/189/119
f 49/189/120 152/115/120 153/113/120 51/190/120
f 51/190/121 153/113/121 154/111/121 53/191/121
f 53/191/122 154/111/122 155/109/122 55/192/122
f 55/192/123 155/109/123 156/107/123 57/193/123
f 57/193/124 156/107/124 157/105/124 59/194/124
f 59/194/125 157/105/125 158/103/125 61/195/125
f 61/195/126 158/103/126 159/99/126 63/196/126
f 63/196/127 159/99/127 160/102/127 1/197/127
l 73 74
o Cube.003
v 0.786459 0.969692 0.062863
v 0.704692 1.091094 0.062863
v 0.875361 1.029570 -0.043306
v 0.793594 1.150972 -0.043306
v 0.810347 0.985782 0.091941
v 0.728581 1.107184 0.091941
v 0.899250 1.045659 -0.014229
v 0.817483 1.167061 -0.014229
v 0.867761 1.024451 -0.037285
v 0.791525 0.973105 0.053758
v 0.709759 1.094507 0.053758
v 0.785994 1.145853 -0.037285
v 0.817948 0.990901 0.085919
v 0.894183 1.042247 -0.005123
v 0.812416 1.163649 -0.005123
v 0.736181 1.112303 0.085919
vn -0.4555 -0.3068 -0.8357
vn 0.5893 0.3969 -0.7037
vn 0.4555 0.3068 0.8357
vn -0.5893 -0.3969 0.7037
vn 0.5586 -0.8294 -0.0000
vn -0.5586 0.8294 -0.0000
vn 0.6888 0.4639 0.5571
vn 0.5837 0.3931 0.7105
vn -0.6888 -0.4639 -0.5571
vn -0.5837 -0.3931 -0.7105
vt 0.375000 0.166667
vt 0.625000 0.166667
vt 0.625000 0.250000
vt 0.375000 0.250000
vt 0.625000 0.500000
vt 0.375000 0.500000
vt 0.375000 0.666667
vt 0.625000 0.666667
vt 0.625000 0.750000
vt 0.375000 0.750000
vt 0.625000 1.000000
vt 0.375000 1.000000
vt 0.125000 0.666667
vt 0.125000 0.750000
vt 0.875000 0.666667
vt 0.875000 0.750000
vt 0.875000 0.500000
vt 0.875000 0.583333
vt 0.625000 0.583333
vt 0.125000 0.500000
vt 0.375000 0.583333
vt 0.125000 0.583333
vt 0.375000 0.000000
vt 0.625000 0.000000
vt 0.625000 0.083333
vt 0.375000 0.083333
s 0
usemtl Material.003
f 169/198/128 172/199/128 164/200/128 163/201/128
f 163/201/129 164/200/129 168/202/129 167/203/129
f 173/204/130 176/205/130 166/206/130 165/207/130
f 165/207/131 166/206/131 162/208/131 161/209/131
f 170/210/132 173/204/132 165/207/132 161/211/132
f 176/205/133 171/212/133 162/213/133 166/206/133
f 168/202/133 164/214/133 172/215/133 175/216/133
f 175/216/133 172/215/133 171/212/133 176/205/133
f 163/217/132 167/203/132 174/218/132 169/219/132
f 169/219/132 174/218/132 173/204/132 170/210/132
f 167/203/134 168/202/134 175/216/134 174/218/134
f 174/218/135 175/216/135 176/205/135 173/204/135
f 161/220/136 162/221/136 171/222/136 170/223/136
f 170/223/137 171/222/137 172/199/137 169/198/137
o Torus.002
v 0.771050 1.202072 -0.027556
v 0.774491 1.204390 -0.017402
v 0.770970 1.202018 -0.007288
v 0.762548 1.196345 -0.003138
v 0.754159 1.190695 -0.007384
v 0.750717 1.188377 -0.017538
v 0.754239 1.190749 -0.027653
v 0.762661 1.196422 -0.031802
v 0.752516 1.222652 -0.023717
v 0.757043 1.223765 -0.013788
v 0.756143 1.218482 -0.004217
v 0.750342 1.209899 -0.000610
v 0.743038 1.203044 -0.005081
v 0.738511 1.201931 -0.015010
v 0.739412 1.207214 -0.024582
v 0.745213 1.215796 -0.028188
v 0.730375 1.235770 -0.012786
v 0.736199 1.236114 -0.003497
v 0.738430 1.228976 0.004529
v 0.735760 1.218538 0.006589
v 0.729754 1.210914 0.001478
v 0.723929 1.210570 -0.007811
v 0.721699 1.217707 -0.015836
v 0.724369 1.228145 -0.017897
v 0.707997 1.239427 0.003575
v 0.715133 1.239557 0.011906
v 0.720528 1.231902 0.017617
v 0.721023 1.220947 0.017364
v 0.716327 1.213108 0.011294
v 0.709192 1.212978 0.002964
v 0.703797 1.220633 -0.002748
v 0.703302 1.231588 -0.002495
v 0.688790 1.233067 0.022874
v 0.697051 1.233570 0.030074
v 0.705162 1.226814 0.033056
v 0.708373 1.216758 0.030074
v 0.704803 1.209293 0.022874
v 0.696543 1.208790 0.015674
v 0.688431 1.215546 0.012691
v 0.685220 1.225601 0.015674
v 0.675678 1.217659 0.042172
v 0.684706 1.219064 0.048242
v 0.694672 1.214487 0.048495
v 0.699738 1.206611 0.042783
v 0.696936 1.200047 0.034453
v 0.687907 1.198643 0.028383
v 0.677941 1.203219 0.028130
v 0.672876 1.211096 0.033842
v 0.670656 1.195548 0.058533
v 0.679978 1.198248 0.063644
v 0.690655 1.196799 0.061583
v 0.696430 1.192049 0.053558
v 0.693922 1.186781 0.044269
v 0.684600 1.184081 0.039158
v 0.673924 1.185530 0.041219
v 0.668148 1.190280 0.049244
v 0.674489 1.170100 0.069465
v 0.683587 1.174291 0.073935
v 0.693721 1.176440 0.070329
v 0.698955 1.175289 0.060758
v 0.696222 1.171512 0.050828
v 0.687124 1.167321 0.046357
v 0.676990 1.165172 0.049964
v 0.671757 1.166323 0.059535
v 0.686594 1.145189 0.073303
v 0.694983 1.150840 0.077549
v 0.703405 1.156512 0.073400
v 0.706927 1.158884 0.063286
v 0.703485 1.156566 0.053131
v 0.695097 1.150916 0.048885
v 0.686674 1.145243 0.053035
v 0.683153 1.142871 0.063149
v 0.807946 1.147291 -0.027556
v 0.811387 1.149609 -0.017402
v 0.807866 1.147237 -0.007288
v 0.799443 1.141565 -0.003138
v 0.791055 1.135914 -0.007384
v 0.787613 1.133596 -0.017538
v 0.791135 1.135968 -0.027653
v 0.799557 1.141641 -0.031802
v 0.723490 1.090409 0.073303
v 0.731879 1.096059 0.077549
v 0.740301 1.101731 0.073400
v 0.743823 1.104103 0.063286
v 0.740381 1.101785 0.053131
v 0.731993 1.096135 0.048885
v 0.723570 1.090463 0.053035
v 0.720049 1.088091 0.063149
vn 0.5331 0.4745 -0.7005
vn 0.7878 0.6159 -0.0109
vn 0.5949 0.4064 0.6935
vn 0.0492 -0.0495 0.9976
vn -0.5302 -0.4782 0.7002
vn -0.7890 -0.6140 -0.0226
vn -0.5721 -0.3796 -0.7270
vn -0.0226 0.0701 -0.9973
vn 0.3306 0.6841 -0.6502
vn 0.6405 0.7679 0.0117
vn 0.5988 0.4253 0.6786
vn 0.2017 -0.1786 0.9630
vn -0.3306 -0.6841 0.6502
vn -0.6525 -0.7539 -0.0767
vn -0.5672 -0.3600 -0.7407
vn -0.1581 0.2301 -0.9602
vn 0.0217 0.8671 -0.4976
vn 0.4151 0.9014 0.1230
vn 0.5841 0.4341 0.6859
vn 0.4123 -0.3034 0.8590
vn -0.0217 -0.8671 0.4976
vn -0.4419 -0.8787 -0.1807
vn -0.5820 -0.3513 -0.7334
vn -0.3835 0.3636 -0.8490
vn -0.2906 0.9182 -0.2693
vn 0.1873 0.9387 0.2896
vn 0.5692 0.4365 0.6968
vn 0.6252 -0.3382 0.7034
vn 0.2906 -0.9182 0.2693
vn -0.2290 -0.9135 -0.3363
vn -0.5969 -0.3489 -0.7225
vn -0.6112 0.4008 -0.6824
vn -0.5586 0.8294 -0.0000
vn -0.0082 0.8739 0.4860
vn 0.5564 0.4323 0.7097
vn 0.8079 -0.2777 0.5199
vn 0.5586 -0.8294 -0.0000
vn -0.0463 -0.8530 -0.5199
vn -0.6097 -0.3531 -0.7097
vn -0.8068 0.3361 -0.4860
vn -0.7416 0.6144 0.2693
vn -0.1417 0.7171 0.6824
vn 0.5476 0.4220 0.7225
vn 0.9326 -0.1311 0.3363
vn 0.7416 -0.6144 -0.2693
vn 0.0784 -0.7064 -0.7034
vn -0.6184 -0.3634 -0.6968
vn -0.9402 0.1792 -0.2896
vn -0.8117 0.3058 0.4976
vn -0.1928 0.4920 0.8490
vn 0.5443 0.4073 0.7334
vn 0.9803 0.0792 0.1807
vn 0.8117 -0.3058 -0.4976
vn 0.1262 -0.4961 -0.8590
vn -0.6218 -0.3781 -0.6859
vn -0.9913 -0.0458 -0.1230
vn -0.7582 -0.0493 0.6502
vn -0.1538 0.2330 0.9602
vn 0.5468 0.3903 0.7407
vn 0.9439 0.3212 0.0767
vn 0.7582 0.0493 -0.6502
vn 0.0897 -0.2541 -0.9630
vn -0.6192 -0.3950 -0.6786
vn -0.9523 -0.3049 -0.0117
vn -0.6401 -0.3156 0.7005
vn -0.0565 0.0473 0.9973
vn 0.5668 0.3875 0.7270
vn 0.8655 0.5004 0.0226
vn 0.6424 0.3116 -0.7002
vn 0.0274 -0.0641 -0.9976
vn -0.6002 -0.3985 -0.6935
vn -0.8668 -0.4985 0.0109
vn 0.8096 -0.2146 -0.5464
vn 0.9960 -0.0890 0.0037
vn 0.8052 -0.2175 0.5516
vn 0.3490 -0.5248 0.7764
vn -0.1054 -0.8309 0.5464
vn -0.2919 -0.9565 -0.0037
vn -0.1011 -0.8280 -0.5516
vn 0.3551 -0.5207 -0.7764
vt 0.750000 0.500000
vt 0.812500 0.500000
vt 0.812500 0.625000
vt 0.750000 0.625000
vt 0.812500 0.750000
vt 0.750000 0.750000
vt 0.812500 0.875000
vt 0.750000 0.875000
vt 0.812500 1.000000
vt 0.750000 1.000000
vt 0.750000 0.000000
vt 0.812500 0.000000
vt 0.812500 0.125000
vt 0.750000 0.125000
vt 0.812500 0.250000
vt 0.750000 0.250000
vt 0.812500 0.375000
vt 0.750000 0.375000
vt 0.875000 0.500000
vt 0.875000 0.625000
vt 0.875000 0.750000
vt 0.875000 0.875000
vt 0.875000 1.000000
vt 0.875000 0.000000
vt 0.875000 0.125000
vt 0.875000 0.250000
vt 0.875000 0.375000
vt 0.937500 0.500000
vt 0.937500 0.625000
vt 0.937500 0.750000
vt 0.937500 0.875000
vt 0.937500 1.000000
vt 0.937500 0.000000
vt 0.937500 0.125000
vt 0.937500 0.250000
vt 0.937500 0.375000
vt 1.000000 0.500000
vt 1.000000 0.625000
vt 1.000000 0.750000
vt 1.000000 0.875000
vt 1.000000 1.000000
vt 1.000000 0.000000
vt 1.000000 0.125000
vt 1.000000 0.250000
vt 1.000000 0.375000
vt 0.000000 0.500000
vt 0.062500 0.500000
vt 0.062500 0.625000
vt 0.000000 0.625000
vt 0.062500 0.750000
vt 0.000000 0.750000
vt 0.062500 0.875000
vt 0.000000 0.875000
vt 0.062500 1.000000
vt 0.000000 1.000000
vt 0.000000 0.000000
vt 0.062500 0.000000
vt 0.062500 0.125000
vt 0.000000 0.125000
vt 0.062500 0.250000
vt 0.000000 0.250000
vt 0.062500 0.375000
vt 0.000000 0.375000
vt 0.125000 0.500000
vt 0.125000 0.625000
vt 0.125000 0.750000
vt 0.125000 0.875000
vt 0.125000 1.000000
vt 0.125000 0.000000
vt 0.125000 0.125000
vt 0.125000 0.250000
vt 0.125000 0.375000
vt 0.187500 0.500000
vt 0.187500 0.625000
vt 0.187500 0.750000
vt 0.187500 0.875000
vt 0.187500 1.000000
vt 0.187500 0.000000
vt 0.187500 0.125000
vt 0.187500 0.250000
vt 0.187500 0.375000
vt 0.250000 0.500000
vt 0.250000 0.625000
vt 0.250000 0.750000
vt 0.250000 0.875000
vt 0.250000 1.000000
vt 0.250000 0.000000
vt 0.250000 0.125000
vt 0.250000 0.250000
vt 0.250000 0.375000
s 1
usemtl Material.004
f 177/224/138 185/225/146 186/226/147 178/227/139
f 178/227/139 186/226/147 187/228/148 179/229/140
f 179/229/140 187/228/148 188/230/149 180/231/141
f 180/231/141 188/230/149 189/232/150 181/233/142
f 181/234/142 189/235/150 190/236/151 182/237/143
f 182/237/143 190/236/151 191/238/152 183/239/144
f 183/239/144 191/238/152 192/240/153 184/241/145
f 184/241/145 192/240/153 185/225/146 177/224/138
f 185/225/146 193/242/154 194/243/155 186/226/147
f 186/226/147 194/243/155 195/244/156 187/228/148
f 187/228/148 195/244/156 196/245/157 188/230/149
f 188/230/149 196/245/157 197/246/158 189/232/150
f 189/235/150 197/247/158 198/248/159 190/236/151
f 190/236/151 198/248/159 199/249/160 191/238/152
f 191/238/152 199/249/160 200/250/161 192/240/153
f 192/240/153 200/250/161 193/242/154 185/225/146
f 193/242/154 201/251/162 202/252/163 194/243/155
f 194/243/155 202/252/163 203/253/164 195/244/156
f 195/244/156 203/253/164 204/254/165 196/245/157
f 196/245/157 204/254/165 205/255/166 197/246/158
f 197/247/158 205/256/166 206/257/167 198/248/159
f 198/248/159 206/257/167 207/258/168 199/249/160
f 199/249/160 207/258/168 208/259/169 200/250/161
f 200/250/161 208/259/169 201/251/162 193/242/154
f 201/251/162 209/260/170 210/261/171 202/252/163
f 202/252/163 210/261/171 211/262/172 203/253/164
f 203/253/164 211/262/172 212/263/173 204/254/165
f 204/254/165 212/263/173 213/264/174 205/255/166
f 205/256/166 213/265/174 214/266/175 206/257/167
f 206/257/167 214/266/175 215/267/176 207/258/168
f 207/258/168 215/267/176 216/268/177 208/259/169
f 208/259/169 216/268/177 209/260/170 201/251/162
f 209/269/170 217/270/178 218/271/179 210/272/171
f 210/272/171 218/271/179 219/273/180 211/274/172
f 211/274/172 219/273/180 220/275/181 212/276/173
f 212/276/173 220/275/181 221/277/182 213/278/174
f 213/279/174 221/280/182 222/281/183 214/282/175
f 214/282/175 222/281/183 223/283/184 215/284/176
f 215/284/176 223/283/184 224/285/185 216/286/177
f 216/286/177 224/285/185 217/270/178 209/269/170
f 217/270/178 225/287/186 226/288/187 218/271/179
f 218/271/179 226/288/187 227/289/188 219/273/180
f 219/273/180 227/289/188 228/290/189 220/275/181
f 220/275/181 228/290/189 229/291/190 221/277/182
f 221/280/182 229/292/190 230/293/191 222/281/183
f 222/281/183 230/293/191 231/294/192 223/283/184
f 223/283/184 231/294/192 232/295/193 224/285/185
f 224/285/185 232/295/193 225/287/186 217/270/178
f 225/287/186 233/296/194 234/297/195 226/288/187
f 226/288/187 234/297/195 235/298/196 227/289/188
f 227/289/188 235/298/196 236/299/197 228/290/189
f 228/290/189 236/299/197 237/300/198 229/291/190
f 229/292/190 237/301/198 238/302/199 230/293/191
f 230/293/191 238/302/199 239/303/200 231/294/192
f 231/294/192 239/303/200 240/304/201 232/295/193
f 232/295/193 240/304/201 233/296/194 225/287/186
f 233/296/194 241/305/202 242/306/203 234/297/195
f 234/297/195 242/306/203 243/307/204 235/298/196
f 235/298/196 243/307/204 244/308/205 236/299/197
f 236/299/197 244/308/205 245/309/206 237/300/198
f 237/301/198 245/310/206 246/311/207 238/302/199
f 238/302/199 246/311/207 247/312/208 239/303/200
f 239/303/200 247/312/208 248/313/209 240/304/201
f 240/304/201 248/313/209 241/305/202 233/296/194
f 182/237/143 183/239/144 255/239/216 254/237/215
f 243/307/204 242/306/203 258/306/213 259/307/212
f 249/224/210 250/227/211 251/229/212 252/231/213 253/234/214 254/237/215 255/239/216 256/241/217
f 257/305/214 264/313/215 263/312/216 262/311/217 261/310/210 260/308/211 259/307/212 258/306/213
f 247/312/208 246/311/207 262/311/217 263/312/216
f 183/239/144 184/241/145 256/241/217 255/239/216
f 244/308/205 243/307/204 259/307/212 260/308/211
f 184/241/145 177/224/138 249/224/210 256/241/217
f 248/313/209 247/312/208 263/312/216 264/313/215
f 177/224/138 178/227/139 250/227/211 249/224/210
f 178/227/139 179/229/140 251/229/212 250/227/211
f 245/309/206 244/308/205 260/308/211 261/309/210
f 241/305/202 248/313/209 264/313/215 257/305/214
f 179/229/140 180/231/141 252/231/213 251/229/212
f 242/306/203 241/305/202 257/305/214 258/306/213
f 180/231/141 181/233/142 253/233/214 252/231/213
f 246/311/207 245/310/206 261/310/210 262/311/217
f 181/234/142 182/237/143 254/237/215 253/234/214
