# Blender 4.5.3 LTS
# www.blender.org
mtllib kos_1.mtl
o Cube
v 0.029557 1.929376 -0.674714
v 0.029557 1.097615 -0.674714
v 0.029557 1.929376 0.674714
v 0.029557 1.097615 0.674714
v -0.029557 1.929376 -0.674714
v -0.029557 1.097615 -0.674714
v -0.029557 1.929376 0.674714
v -0.029557 1.097615 0.674714
vn -0.0000 1.0000 -0.0000
vn -0.0000 -0.0000 1.0000
vn -1.0000 -0.0000 -0.0000
vn -0.0000 -1.0000 -0.0000
vn 1.0000 -0.0000 -0.0000
vn -0.0000 -0.0000 -1.0000
vt 0.625000 0.500000
vt 0.875000 0.500000
vt 0.875000 0.750000
vt 0.625000 0.750000
vt 0.375000 0.750000
vt 0.625000 1.000000
vt 0.375000 1.000000
vt 0.375000 0.000000
vt 0.625000 0.000000
vt 0.625000 0.250000
vt 0.375000 0.250000
vt 0.125000 0.500000
vt 0.375000 0.500000
vt 0.125000 0.750000
s 0
usemtl Material
f 1/1/1 5/2/1 7/3/1 3/4/1
f 4/5/2 3/4/2 7/6/2 8/7/2
f 8/8/3 7/9/3 5/10/3 6/11/3
f 6/12/4 2/13/4 4/5/4 8/14/4
f 2/13/5 1/1/5 3/4/5 4/5/5
f 6/11/6 5/10/6 1/1/6 2/13/6
o Torus
v 0.732842 1.192737 0.000000
v 0.726607 1.207791 0.000000
v 0.711553 1.214027 0.000000
v 0.683794 1.207080 0.000000
v 0.677853 1.192737 0.000000
v 0.683794 1.178395 0.000000
v 0.711553 1.171448 0.000000
v 0.726607 1.177683 0.000000
v 0.722444 1.192737 -0.078978
v 0.716421 1.207791 -0.077364
v 0.701880 1.214027 -0.073468
v 0.675067 1.207080 -0.066283
v 0.669329 1.192737 -0.064746
v 0.675067 1.178395 -0.066283
v 0.701880 1.171448 -0.073468
v 0.716421 1.177683 -0.077364
v 0.691960 1.192737 -0.152574
v 0.686560 1.207791 -0.149456
v 0.673523 1.214027 -0.141929
v 0.649483 1.207080 -0.128050
v 0.644338 1.192737 -0.125079
v 0.649483 1.178395 -0.128050
v 0.673523 1.171448 -0.141929
v 0.686560 1.177683 -0.149456
v 0.643466 1.192737 -0.215772
v 0.639057 1.207791 -0.211363
v 0.628412 1.214027 -0.200718
v 0.608784 1.207080 -0.181090
v 0.604583 1.192737 -0.176889
v 0.608784 1.178395 -0.181090
v 0.628412 1.171448 -0.200718
v 0.639057 1.177683 -0.211363
v 0.580268 1.192737 -0.264266
v 0.577150 1.207791 -0.258866
v 0.569623 1.214027 -0.245829
v 0.555744 1.207080 -0.221789
v 0.552773 1.192737 -0.216644
v 0.555744 1.178395 -0.221789
v 0.569623 1.171448 -0.245829
v 0.577150 1.177683 -0.258866
v 0.506672 1.192737 -0.294750
v 0.505058 1.207791 -0.288727
v 0.501162 1.214027 -0.274186
v 0.493977 1.207080 -0.247373
v 0.492440 1.192737 -0.241635
v 0.493977 1.178395 -0.247373
v 0.501162 1.171448 -0.274186
v 0.505058 1.177683 -0.288727
v 0.427694 1.192737 -0.305148
v 0.427694 1.207791 -0.298913
v 0.427694 1.214027 -0.283859
v 0.427694 1.207080 -0.256100
v 0.427694 1.192737 -0.250159
v 0.427694 1.178395 -0.256100
v 0.427694 1.171448 -0.283859
v 0.427694 1.177683 -0.298913
v 0.348716 1.192737 -0.294750
v 0.350330 1.207791 -0.288727
v 0.354226 1.214027 -0.274186
v 0.361411 1.207080 -0.247373
v 0.362948 1.192737 -0.241635
v 0.361411 1.178395 -0.247373
v 0.354226 1.171448 -0.274186
v 0.350330 1.177683 -0.288727
v 0.275120 1.192737 -0.264266
v 0.278238 1.207791 -0.258866
v 0.285765 1.214027 -0.245829
v 0.299644 1.207080 -0.221789
v 0.302615 1.192737 -0.216644
v 0.299644 1.178395 -0.221789
v 0.285765 1.171448 -0.245829
v 0.278238 1.177683 -0.258866
v 0.211922 1.192737 -0.215772
v 0.216331 1.207791 -0.211363
v 0.226976 1.214027 -0.200718
v 0.246604 1.207080 -0.181090
v 0.250805 1.192737 -0.176889
v 0.246604 1.178395 -0.181090
v 0.226976 1.171448 -0.200718
v 0.216331 1.177683 -0.211363
v 0.163428 1.192737 -0.152574
v 0.168828 1.207791 -0.149456
v 0.181865 1.214027 -0.141929
v 0.205905 1.207080 -0.128050
v 0.211050 1.192737 -0.125079
v 0.205905 1.178395 -0.128050
v 0.181865 1.171448 -0.141929
v 0.168828 1.177683 -0.149456
v 0.132944 1.192737 -0.078978
v 0.138967 1.207791 -0.077364
v 0.153508 1.214027 -0.073468
v 0.180321 1.207080 -0.066283
v 0.186059 1.192737 -0.064746
v 0.180321 1.178395 -0.066283
v 0.153508 1.171448 -0.073468
v 0.138967 1.177683 -0.077364
v 0.122546 1.192737 -0.000000
v 0.128781 1.207791 -0.000000
v 0.143835 1.214027 -0.000000
v 0.171594 1.207080 -0.000000
v 0.177535 1.192737 -0.000000
v 0.171594 1.178395 -0.000000
v 0.143835 1.171448 -0.000000
v 0.128781 1.177683 -0.000000
v 0.132944 1.192737 0.078978
v 0.138967 1.207791 0.077364
v 0.153508 1.214027 0.073468
v 0.180321 1.207080 0.066283
v 0.186059 1.192737 0.064746
v 0.180321 1.178395 0.066283
v 0.153508 1.171448 0.073468
v 0.138967 1.177683 0.077364
v 0.163428 1.192737 0.152574
v 0.168828 1.207791 0.149456
v 0.181865 1.214027 0.141929
v 0.205905 1.207080 0.128050
v 0.211050 1.192737 0.125079
v 0.205905 1.178395 0.128050
v 0.181865 1.171448 0.141929
v 0.168828 1.177683 0.149456
v 0.211922 1.192737 0.215772
v 0.216331 1.207791 0.211363
v 0.226976 1.214027 0.200718
v 0.246604 1.207080 0.181090
v 0.250805 1.192737 0.176889
v 0.246604 1.178395 0.181090
v 0.226976 1.171448 0.200718
v 0.216331 1.177683 0.211363
v 0.275120 1.192737 0.264266
v 0.278238 1.207791 0.258866
v 0.285765 1.214027 0.245829
v 0.299644 1.207080 0.221789
v 0.302615 1.192737 0.216644
v 0.299644 1.178395 0.221789
v 0.285765 1.171448 0.245829
v 0.278238 1.177683 0.258866
v 0.348716 1.192737 0.294750
v 0.350330 1.207791 0.288727
v 0.354226 1.214027 0.274186
v 0.361410 1.207080 0.247373
v 0.362948 1.192737 0.241635
v 0.361410 1.178395 0.247373
v 0.354226 1.171448 0.274186
v 0.350330 1.177683 0.288727
v 0.427694 1.192737 0.305148
v 0.427694 1.207791 0.298913
v 0.427694 1.214027 0.283859
v 0.427694 1.207080 0.256100
v 0.427694 1.192737 0.250159
v 0.427694 1.178395 0.256100
v 0.427694 1.171448 0.283859
v 0.427694 1.177683 0.298913
v 0.506672 1.192737 0.294750
v 0.505058 1.207791 0.288727
v 0.501162 1.214027 0.274186
v 0.493977 1.207080 0.247373
v 0.492440 1.192737 0.241635
v 0.493977 1.178395 0.247373
v 0.501162 1.171448 0.274186
v 0.505058 1.177683 0.288727
v 0.580268 1.192737 0.264266
v 0.577150 1.207791 0.258866
v 0.569623 1.214027 0.245829
v 0.555744 1.207080 0.221789
v 0.552773 1.192737 0.216644
v 0.555744 1.178395 0.221789
v 0.569623 1.171448 0.245829
v 0.577150 1.177683 0.258866
v 0.643466 1.192737 0.215772
v 0.639057 1.207791 0.211363
v 0.628412 1.214027 0.200719
v 0.608784 1.207080 0.181090
v 0.604583 1.192737 0.176889
v 0.608784 1.178395 0.181090
v 0.628412 1.171448 0.200719
v 0.639057 1.177683 0.211363
v 0.691960 1.192737 0.152574
v 0.686560 1.207791 0.149456
v 0.673523 1.214027 0.141929
v 0.649483 1.207080 0.128050
v 0.644338 1.192737 0.125079
v 0.649483 1.178395 0.128050
v 0.673523 1.171448 0.141929
v 0.686560 1.177683 0.149456
v 0.722444 1.192737 0.078978
v 0.716421 1.207791 0.077364
v 0.701880 1.214027 0.073468
v 0.675067 1.207080 0.066283
v 0.669329 1.192737 0.064746
v 0.675067 1.178395 0.066283
v 0.701880 1.171448 0.073468
v 0.716421 1.177683 0.077364
vn 0.9239 0.3827 -0.0000
vn 0.8924 0.3827 -0.2391
vn 0.3827 0.9239 -0.0000
vn 0.3696 0.9239 -0.0990
vn -0.2428 0.9701 -0.0000
vn -0.2345 0.9701 0.0628
vn -0.9239 0.3827 -0.0000
vn -0.8924 0.3827 0.2391
vn -0.9239 -0.3827 -0.0000
vn -0.8924 -0.3827 0.2391
vn -0.2428 -0.9701 -0.0000
vn -0.2345 -0.9701 0.0628
vn 0.3827 -0.9239 -0.0000
vn 0.3696 -0.9239 -0.0990
vn 0.9239 -0.3827 -0.0000
vn 0.8924 -0.3827 -0.2391
vn 0.8001 0.3827 -0.4619
vn 0.3314 0.9239 -0.1913
vn -0.2102 0.9701 0.1214
vn -0.8001 0.3827 0.4619
vn -0.8001 -0.3827 0.4619
vn -0.2102 -0.9701 0.1214
vn 0.3314 -0.9239 -0.1913
vn 0.8001 -0.3827 -0.4619
vn 0.6533 0.3827 -0.6533
vn 0.2706 0.9239 -0.2706
vn -0.1717 0.9701 0.1717
vn -0.6533 0.3827 0.6533
vn -0.6533 -0.3827 0.6533
vn -0.1717 -0.9701 0.1717
vn 0.2706 -0.9239 -0.2706
vn 0.6533 -0.3827 -0.6533
vn 0.4619 0.3827 -0.8001
vn 0.1913 0.9239 -0.3314
vn -0.1214 0.9701 0.2102
vn -0.4619 0.3827 0.8001
vn -0.4619 -0.3827 0.8001
vn -0.1214 -0.9701 0.2102
vn 0.1913 -0.9239 -0.3314
vn 0.4619 -0.3827 -0.8001
vn 0.2391 0.3827 -0.8924
vn 0.0990 0.9239 -0.3696
vn -0.0628 0.9701 0.2345
vn -0.2391 0.3827 0.8924
vn -0.2391 -0.3827 0.8924
vn -0.0628 -0.9701 0.2345
vn 0.0990 -0.9239 -0.3696
vn 0.2391 -0.3827 -0.8924
vn -0.0000 0.3827 -0.9239
vn -0.0000 0.9239 -0.3827
vn -0.0000 0.9701 0.2428
vn -0.0000 0.3827 0.9239
vn -0.0000 -0.3827 0.9239
vn -0.0000 -0.9701 0.2428
vn -0.0000 -0.9239 -0.3827
vn -0.0000 -0.3827 -0.9239
vn -0.2391 0.3827 -0.8924
vn -0.0990 0.9239 -0.3696
vn 0.0628 0.9701 0.2345
vn 0.2391 0.3827 0.8924
vn 0.2391 -0.3827 0.8924
vn 0.0628 -0.9701 0.2345
vn -0.0990 -0.9239 -0.3696
vn -0.2391 -0.3827 -0.8924
vn -0.4619 0.3827 -0.8001
vn -0.1913 0.9239 -0.3314
vn 0.1214 0.9701 0.2102
vn 0.4619 0.3827 0.8001
vn 0.4619 -0.3827 0.8001
vn 0.1214 -0.9701 0.2102
vn -0.1913 -0.9239 -0.3314
vn -0.4619 -0.3827 -0.8001
vn -0.6533 0.3827 -0.6533
vn -0.2706 0.9239 -0.2706
vn 0.1717 0.9701 0.1717
vn 0.6533 0.3827 0.6533
vn 0.6533 -0.3827 0.6533
vn 0.1717 -0.9701 0.1717
vn -0.2706 -0.9239 -0.2706
vn -0.6533 -0.3827 -0.6533
vn -0.8001 0.3827 -0.4619
vn -0.3314 0.9239 -0.1913
vn 0.2102 0.9701 0.1214
vn 0.8001 0.3827 0.4619
vn 0.8001 -0.3827 0.4619
vn 0.2102 -0.9701 0.1214
vn -0.3314 -0.9239 -0.1913
vn -0.8001 -0.3827 -0.4619
vn -0.8924 0.3827 -0.2391
vn -0.3696 0.9239 -0.0990
vn 0.2345 0.9701 0.0628
vn 0.8924 0.3827 0.2391
vn 0.8924 -0.3827 0.2391
vn 0.2345 -0.9701 0.0628
vn -0.3696 -0.9239 -0.0990
vn -0.8924 -0.3827 -0.2391
vn -0.3827 0.9239 -0.0000
vn 0.2428 0.9701 -0.0000
vn 0.2428 -0.9701 -0.0000
vn -0.3827 -0.9239 -0.0000
vn -0.3696 0.9239 0.0990
vn 0.2345 0.9701 -0.0628
vn 0.2345 -0.9701 -0.0628
vn -0.3696 -0.9239 0.0990
vn -0.3314 0.9239 0.1913
vn 0.2102 0.9701 -0.1214
vn 0.2102 -0.9701 -0.1214
vn -0.3314 -0.9239 0.1913
vn -0.2706 0.9239 0.2706
vn 0.1717 0.9701 -0.1717
vn 0.1717 -0.9701 -0.1717
vn -0.2706 -0.9239 0.2706
vn -0.1913 0.9239 0.3314
vn 0.1214 0.9701 -0.2102
vn 0.1214 -0.9701 -0.2102
vn -0.1913 -0.9239 0.3314
vn -0.0990 0.9239 0.3696
vn 0.0628 0.9701 -0.2345
vn 0.0628 -0.9701 -0.2345
vn -0.0990 -0.9239 0.3696
vn -0.0000 0.9239 0.3827
vn -0.0000 0.9701 -0.2428
vn -0.0000 -0.9701 -0.2428
vn -0.0000 -0.9239 0.3827
vn 0.0990 0.9239 0.3696
vn -0.0628 0.9701 -0.2345
vn -0.0628 -0.9701 -0.2345
vn 0.0990 -0.9239 0.3696
vn 0.1913 0.9239 0.3314
vn -0.1214 0.9701 -0.2102
vn -0.1214 -0.9701 -0.2102
vn 0.1913 -0.9239 0.3314
vn 0.2706 0.9239 0.2706
vn -0.1717 0.9701 -0.1717
vn -0.1717 -0.9701 -0.1717
vn 0.2706 -0.9239 0.2706
vn 0.3314 0.9239 0.1913
vn -0.2102 0.9701 -0.1214
vn -0.2102 -0.9701 -0.1214
vn 0.3314 -0.9239 0.1913
vn 0.3696 0.9239 0.0990
vn -0.2345 0.9701 -0.0628
vn -0.2345 -0.9701 -0.0628
vn 0.3696 -0.9239 0.0990
vt 0.500000 0.500000
vt 0.541667 0.500000
vt 0.541667 0.625000
vt 0.500000 0.625000
vt 0.541667 0.750000
vt 0.500000 0.750000
vt 0.541667 0.875000
vt 0.500000 0.875000
vt 0.541667 1.000000
vt 0.500000 1.000000
vt 0.500000 0.000000
vt 0.541667 0.000000
vt 0.541667 0.125000
vt 0.500000 0.125000
vt 0.541667 0.250000
vt 0.500000 0.250000
vt 0.541667 0.375000
vt 0.500000 0.375000
vt 0.583333 0.500000
vt 0.583333 0.625000
vt 0.583333 0.750000
vt 0.583333 0.875000
vt 0.583333 1.000000
vt 0.583333 0.000000
vt 0.583333 0.125000
vt 0.583333 0.250000
vt 0.583333 0.375000
vt 0.625000 0.500000
vt 0.625000 0.625000
vt 0.625000 0.750000
vt 0.625000 0.875000
vt 0.625000 1.000000
vt 0.625000 0.000000
vt 0.625000 0.125000
vt 0.625000 0.250000
vt 0.625000 0.375000
vt 0.666667 0.500000
vt 0.666667 0.625000
vt 0.666667 0.750000
vt 0.666667 0.875000
vt 0.666667 1.000000
vt 0.666667 0.000000
vt 0.666667 0.125000
vt 0.666667 0.250000
vt 0.666667 0.375000
vt 0.708333 0.500000
vt 0.708333 0.625000
vt 0.708333 0.750000
vt 0.708333 0.875000
vt 0.708333 1.000000
vt 0.708333 0.000000
vt 0.708333 0.125000
vt 0.708333 0.250000
vt 0.708333 0.375000
vt 0.750000 0.500000
vt 0.750000 0.625000
vt 0.750000 0.750000
vt 0.750000 0.875000
vt 0.750000 1.000000
vt 0.750000 0.000000
vt 0.750000 0.125000
vt 0.750000 0.250000
vt 0.750000 0.375000
vt 0.791667 0.500000
vt 0.791667 0.625000
vt 0.791667 0.750000
vt 0.791667 0.875000
vt 0.791667 1.000000
vt 0.791667 0.000000
vt 0.791667 0.125000
vt 0.791667 0.250000
vt 0.791667 0.375000
vt 0.833333 0.500000
vt 0.833333 0.625000
vt 0.833333 0.750000
vt 0.833333 0.875000
vt 0.833333 1.000000
vt 0.833333 0.000000
vt 0.833333 0.125000
vt 0.833333 0.250000
vt 0.833333 0.375000
vt 0.875000 0.500000
vt 0.875000 0.625000
vt 0.875000 0.750000
vt 0.875000 0.875000
vt 0.875000 1.000000
vt 0.875000 0.000000
vt 0.875000 0.125000
vt 0.875000 0.250000
vt 0.875000 0.375000
vt 0.916667 0.500000
vt 0.916667 0.625000
vt 0.916667 0.750000
vt 0.916667 0.875000
vt 0.916667 1.000000
vt 0.916667 0.000000
vt 0.916667 0.125000
vt 0.916667 0.250000
vt 0.916667 0.375000
vt 0.958333 0.500000
vt 0.958333 0.625000
vt 0.958333 0.750000
vt 0.958333 0.875000
vt 0.958333 1.000000
vt 0.958333 0.000000
vt 0.958333 0.125000
vt 0.958333 0.250000
vt 0.958333 0.375000
vt 1.000000 0.500000
vt 1.000000 0.625000
vt 1.000000 0.750000
vt 1.000000 0.875000
vt 1.000000 1.000000
vt 1.000000 0.000000
vt 1.000000 0.125000
vt 1.000000 0.250000
vt 1.000000 0.375000
vt -0.000000 0.500000
vt 0.041667 0.500000
vt 0.041667 0.625000
vt -0.000000 0.625000
vt 0.041667 0.750000
vt -0.000000 0.750000
vt 0.041667 0.875000
vt -0.000000 0.875000
vt 0.041667 1.000000
vt -0.000000 1.000000
vt -0.000000 0.000000
vt 0.041667 0.000000
vt 0.041667 0.125000
vt -0.000000 0.125000
vt 0.041667 0.250000
vt -0.000000 0.250000
vt 0.041667 0.375000
vt -0.000000 0.375000
vt 0.083333 0.500000
vt 0.083333 0.625000
vt 0.083333 0.750000
vt 0.083333 0.875000
vt 0.083333 1.000000
vt 0.083333 0.000000
vt 0.083333 0.125000
vt 0.083333 0.250000
vt 0.083333 0.375000
vt 0.125000 0.500000
vt 0.125000 0.625000
vt 0.125000 0.750000
vt 0.125000 0.875000
vt 0.125000 1.000000
vt 0.125000 0.000000
vt 0.125000 0.125000
vt 0.125000 0.250000
vt 0.125000 0.375000
vt 0.166667 0.500000
vt 0.166667 0.625000
vt 0.166667 0.750000
vt 0.166667 0.875000
vt 0.166667 1.000000
vt 0.166667 0.000000
vt 0.166667 0.125000
vt 0.166667 0.250000
vt 0.166667 0.375000
vt 0.208333 0.500000
vt 0.208333 0.625000
vt 0.208333 0.750000
vt 0.208333 0.875000
vt 0.208333 1.000000
vt 0.208333 0.000000
vt 0.208333 0.125000
vt 0.208333 0.250000
vt 0.208333 0.375000
vt 0.250000 0.500000
vt 0.250000 0.625000
vt 0.250000 0.750000
vt 0.250000 0.875000
vt 0.250000 1.000000
vt 0.250000 0.000000
vt 0.250000 0.125000
vt 0.250000 0.250000
vt 0.250000 0.375000
vt 0.291667 0.500000
vt 0.291667 0.625000
vt 0.291667 0.750000
vt 0.291667 0.875000
vt 0.291667 1.000000
vt 0.291667 0.000000
vt 0.291667 0.125000
vt 0.291667 0.250000
vt 0.291667 0.375000
vt 0.333333 0.500000
vt 0.333333 0.625000
vt 0.333333 0.750000
vt 0.333333 0.875000
vt 0.333333 1.000000
vt 0.333333 0.000000
vt 0.333333 0.125000
vt 0.333333 0.250000
vt 0.333333 0.375000
vt 0.375000 0.500000
vt 0.375000 0.625000
vt 0.375000 0.750000
vt 0.375000 0.875000
vt 0.375000 1.000000
vt 0.375000 0.000000
vt 0.375000 0.125000
vt 0.375000 0.250000
vt 0.375000 0.375000
vt 0.416667 0.500000
vt 0.416667 0.625000
vt 0.416667 0.750000
vt 0.416667 0.875000
vt 0.416667 1.000000
vt 0.416667 0.000000
vt 0.416667 0.125000
vt 0.416667 0.250000
vt 0.416667 0.375000
vt 0.458333 0.500000
vt 0.458333 0.625000
vt 0.458333 0.750000
vt 0.458333 0.875000
vt 0.458333 1.000000
vt 0.458333 0.000000
vt 0.458333 0.125000
vt 0.458333 0.250000
vt 0.458333 0.375000
s 1
usemtl Material.001
f 9/15/7 17/16/8 18/17/8 10/18/7
f 10/18/9 18/17/10 19/19/10 11/20/9
f 11/20/11 19/19/12 20/21/12 12/22/11
f 12/22/13 20/21/14 21/23/14 13/24/13
f 13/25/15 21/26/16 22/27/16 14/28/15
f 14/28/17 22/27/18 23/29/18 15/30/17
f 15/30/19 23/29/20 24/31/20 16/32/19
f 16/32/21 24/31/22 17/16/22 9/15/21
f 17/16/8 25/33/23 26/34/23 18/17/8
f 18/17/10 26/34/24 27/35/24 19/19/10
f 19/19/12 27/35/25 28/36/25 20/21/12
f 20/21/14 28/36/26 29/37/26 21/23/14
f 21/26/16 29/38/27 30/39/27 22/27/16
f 22/27/18 30/39/28 31/40/28 23/29/18
f 23/29/20 31/40/29 32/41/29 24/31/20
f 24/31/22 32/41/30 25/33/30 17/16/22
f 25/33/23 33/42/31 34/43/31 26/34/23
f 26/34/24 34/43/32 35/44/32 27/35/24
f 27/35/25 35/44/33 36/45/33 28/36/25
f 28/36/26 36/45/34 37/46/34 29/37/26
f 29/38/27 37/47/35 38/48/35 30/39/27
f 30/39/28 38/48/36 39/49/36 31/40/28
f 31/40/29 39/49/37 40/50/37 32/41/29
f 32/41/30 40/50/38 33/42/38 25/33/30
f 33/42/31 41/51/39 42/52/39 34/43/31
f 34/43/32 42/52/40 43/53/40 35/44/32
f 35/44/33 43/53/41 44/54/41 36/45/33
f 36/45/34 44/54/42 45/55/42 37/46/34
f 37/47/35 45/56/43 46/57/43 38/48/35
f 38/48/36 46/57/44 47/58/44 39/49/36
f 39/49/37 47/58/45 48/59/45 40/50/37
f 40/50/38 48/59/46 41/51/46 33/42/38
f 41/51/39 49/60/47 50/61/47 42/52/39
f 42/52/40 50/61/48 51/62/48 43/53/40
f 43/53/41 51/62/49 52/63/49 44/54/41
f 44/54/42 52/63/50 53/64/50 45/55/42
f 45/56/43 53/65/51 54/66/51 46/57/43
f 46/57/44 54/66/52 55/67/52 47/58/44
f 47/58/45 55/67/53 56/68/53 48/59/45
f 48/59/46 56/68/54 49/60/54 41/51/46
f 49/60/47 57/69/55 58/70/55 50/61/47
f 50/61/48 58/70/56 59/71/56 51/62/48
f 51/62/49 59/71/57 60/72/57 52/63/49
f 52/63/50 60/72/58 61/73/58 53/64/50
f 53/65/51 61/74/59 62/75/59 54/66/51
f 54/66/52 62/75/60 63/76/60 55/67/52
f 55/67/53 63/76/61 64/77/61 56/68/53
f 56/68/54 64/77/62 57/69/62 49/60/54
f 57/69/55 65/78/63 66/79/63 58/70/55
f 58/70/56 66/79/64 67/80/64 59/71/56
f 59/71/57 67/80/65 68/81/65 60/72/57
f 60/72/58 68/81/66 69/82/66 61/73/58
f 61/74/59 69/83/67 70/84/67 62/75/59
f 62/75/60 70/84/68 71/85/68 63/76/60
f 63/76/61 71/85/69 72/86/69 64/77/61
f 64/77/62 72/86/70 65/78/70 57/69/62
f 65/78/63 73/87/71 74/88/71 66/79/63
f 66/79/64 74/88/72 75/89/72 67/80/64
f 67/80/65 75/89/73 76/90/73 68/81/65
f 68/81/66 76/90/74 77/91/74 69/82/66
f 69/83/67 77/92/75 78/93/75 70/84/67
f 70/84/68 78/93/76 79/94/76 71/85/68
f 71/85/69 79/94/77 80/95/77 72/86/69
f 72/86/70 80/95/78 73/87/78 65/78/70
f 73/87/71 81/96/79 82/97/79 74/88/71
f 74/88/72 82/97/80 83/98/80 75/89/72
f 75/89/73 83/98/81 84/99/81 76/90/73
f 76/90/74 84/99/82 85/100/82 77/91/74
f 77/92/75 85/101/83 86/102/83 78/93/75
f 78/93/76 86/102/84 87/103/84 79/94/76
f 79/94/77 87/103/85 88/104/85 80/95/77
f 80/95/78 88/104/86 81/96/86 73/87/78
f 81/96/79 89/105/87 90/106/87 82/97/79
f 82/97/80 90/106/88 91/107/88 83/98/80
f 83/98/81 91/107/89 92/108/89 84/99/81
f 84/99/82 92/108/90 93/109/90 85/100/82
f 85/101/83 93/110/91 94/111/91 86/102/83
f 86/102/84 94/111/92 95/112/92 87/103/84
f 87/103/85 95/112/93 96/113/93 88/104/85
f 88/104/86 96/113/94 89/105/94 81/96/86
f 89/105/87 97/114/95 98/115/95 90/106/87
f 90/106/88 98/115/96 99/116/96 91/107/88
f 91/107/89 99/116/97 100/117/97 92/108/89
f 92/108/90 100/117/98 101/118/98 93/109/90
f 93/110/91 101/119/99 102/120/99 94/111/91
f 94/111/92 102/120/100 103/121/100 95/112/92
f 95/112/93 103/121/101 104/122/101 96/113/93
f 96/113/94 104/122/102 97/114/102 89/105/94
f 97/114/95 105/123/13 106/124/13 98/115/95
f 98/115/96 106/124/103 107/125/103 99/116/96
f 99/116/97 107/125/104 108/126/104 100/117/97
f 100/117/98 108/126/7 109/127/7 101/118/98
f 101/119/99 109/128/21 110/129/21 102/120/99
f 102/120/100 110/129/105 111/130/105 103/121/100
f 103/121/101 111/130/106 112/131/106 104/122/101
f 104/122/102 112/131/15 105/123/15 97/114/102
f 105/132/13 113/133/14 114/134/14 106/135/13
f 106/135/103 114/134/107 115/136/107 107/137/103
f 107/137/104 115/136/108 116/138/108 108/139/104
f 108/139/7 116/138/8 117/140/8 109/141/7
f 109/142/21 117/143/22 118/144/22 110/145/21
f 110/145/105 118/144/109 119/146/109 111/147/105
f 111/147/106 119/146/110 120/148/110 112/149/106
f 112/149/15 120/148/16 113/133/16 105/132/15
f 113/133/14 121/150/26 122/151/26 114/134/14
f 114/134/107 122/151/111 123/152/111 115/136/107
f 115/136/108 123/152/112 124/153/112 116/138/108
f 116/138/8 124/153/23 125/154/23 117/140/8
f 117/143/22 125/155/30 126/156/30 118/144/22
f 118/144/109 126/156/113 127/157/113 119/146/109
f 119/146/110 127/157/114 128/158/114 120/148/110
f 120/148/16 128/158/27 121/150/27 113/133/16
f 121/150/26 129/159/34 130/160/34 122/151/26
f 122/151/111 130/160/115 131/161/115 123/152/111
f 123/152/112 131/161/116 132/162/116 124/153/112
f 124/153/23 132/162/31 133/163/31 125/154/23
f 125/155/30 133/164/38 134/165/38 126/156/30
f 126/156/113 134/165/117 135/166/117 127/157/113
f 127/157/114 135/166/118 136/167/118 128/158/114
f 128/158/27 136/167/35 129/159/35 121/150/27
f 129/159/34 137/168/42 138/169/42 130/160/34
f 130/160/115 138/169/119 139/170/119 131/161/115
f 131/161/116 139/170/120 140/171/120 132/162/116
f 132/162/31 140/171/39 141/172/39 133/163/31
f 133/164/38 141/173/46 142/174/46 134/165/38
f 134/165/117 142/174/121 143/175/121 135/166/117
f 135/166/118 143/175/122 144/176/122 136/167/118
f 136/167/35 144/176/43 137/168/43 129/159/35
f 137/168/42 145/177/50 146/178/50 138/169/42
f 138/169/119 146/178/123 147/179/123 139/170/119
f 139/170/120 147/179/124 148/180/124 140/171/120
f 140/171/39 148/180/47 149/181/47 141/172/39
f 141/173/46 149/182/54 150/183/54 142/174/46
f 142/174/121 150/183/125 151/184/125 143/175/121
f 143/175/122 151/184/126 152/185/126 144/176/122
f 144/176/43 152/185/51 145/177/51 137/168/43
f 145/177/50 153/186/58 154/187/58 146/178/50
f 146/178/123 154/187/127 155/188/127 147/179/123
f 147/179/124 155/188/128 156/189/128 148/180/124
f 148/180/47 156/189/55 157/190/55 149/181/47
f 149/182/54 157/191/62 158/192/62 150/183/54
f 150/183/125 158/192/129 159/193/129 151/184/125
f 151/184/126 159/193/130 160/194/130 152/185/126
f 152/185/51 160/194/59 153/186/59 145/177/51
f 153/186/58 161/195/66 162/196/66 154/187/58
f 154/187/127 162/196/131 163/197/131 155/188/127
f 155/188/128 163/197/132 164/198/132 156/189/128
f 156/189/55 164/198/63 165/199/63 157/190/55
f 157/191/62 165/200/70 166/201/70 158/192/62
f 158/192/129 166/201/133 167/202/133 159/193/129
f 159/193/130 167/202/134 168/203/134 160/194/130
f 160/194/59 168/203/67 161/195/67 153/186/59
f 161/195/66 169/204/74 170/205/74 162/196/66
f 162/196/131 170/205/135 171/206/135 163/197/131
f 163/197/132 171/206/136 172/207/136 164/198/132
f 164/198/63 172/207/71 173/208/71 165/199/63
f 165/200/70 173/209/78 174/210/78 166/201/70
f 166/201/133 174/210/137 175/211/137 167/202/133
f 167/202/134 175/211/138 176/212/138 168/203/134
f 168/203/67 176/212/75 169/204/75 161/195/67
f 169/204/74 177/213/82 178/214/82 170/205/74
f 170/205/135 178/214/139 179/215/139 171/206/135
f 171/206/136 179/215/140 180/216/140 172/207/136
f 172/207/71 180/216/79 181/217/79 173/208/71
f 173/209/78 181/218/86 182/219/86 174/210/78
f 174/210/137 182/219/141 183/220/141 175/211/137
f 175/211/138 183/220/142 184/221/142 176/212/138
f 176/212/75 184/221/83 177/213/83 169/204/75
f 177/213/82 185/222/90 186/223/90 178/214/82
f 178/214/139 186/223/143 187/224/143 179/215/139
f 179/215/140 187/224/144 188/225/144 180/216/140
f 180/216/79 188/225/87 189/226/87 181/217/79
f 181/218/86 189/227/94 190/228/94 182/219/86
f 182/219/141 190/228/145 191/229/145 183/220/141
f 183/220/142 191/229/146 192/230/146 184/221/142
f 184/221/83 192/230/91 185/222/91 177/213/83
f 185/222/90 193/231/98 194/232/98 186/223/90
f 186/223/143 194/232/147 195/233/147 187/224/143
f 187/224/144 195/233/148 196/234/148 188/225/144
f 188/225/87 196/234/95 197/235/95 189/226/87
f 189/227/94 197/236/102 198/237/102 190/228/94
f 190/228/145 198/237/149 199/238/149 191/229/145
f 191/229/146 199/238/150 200/239/150 192/230/146
f 192/230/91 200/239/99 193/231/99 185/222/91
f 193/231/98 9/15/7 10/18/7 194/232/98
f 194/232/147 10/18/9 11/20/9 195/233/147
f 195/233/148 11/20/11 12/22/11 196/234/148
f 196/234/95 12/22/13 13/24/13 197/235/95
f 197/236/102 13/25/15 14/28/15 198/237/102
f 198/237/149 14/28/17 15/30/17 199/238/149
f 199/238/150 15/30/19 16/32/19 200/239/150
f 200/239/99 16/32/21 9/15/21 193/231/99
o Cube.001
v 0.022516 1.167790 0.116818
v 0.022516 1.225993 0.116818
v 0.022516 1.167790 -0.116818
v 0.022516 1.225993 -0.116818
v 0.157000 1.167790 0.096381
v 0.157000 1.225993 0.096381
v 0.157000 1.167790 -0.096381
v 0.157000 1.225993 -0.096381
v 0.022516 1.167790 0.000000
v 0.022516 1.225993 0.000000
v 0.140181 1.167790 0.000000
v 0.140181 1.225993 0.000000
vn -1.0000 -0.0000 -0.0000
vn 0.1502 -0.0000 -0.9886
vn 0.9851 -0.0000 -0.1719
vn 0.1502 -0.0000 0.9886
vn -0.0000 -1.0000 -0.0000
vn -0.0000 1.0000 -0.0000
vn 0.9851 -0.0000 0.1719
vt 0.375000 0.125000
vt 0.625000 0.125000
vt 0.625000 0.250000
vt 0.375000 0.250000
vt 0.625000 0.500000
vt 0.375000 0.500000
vt 0.375000 0.625000
vt 0.625000 0.625000
vt 0.625000 0.750000
vt 0.375000 0.750000
vt 0.625000 1.000000
vt 0.375000 1.000000
vt 0.125000 0.625000
vt 0.125000 0.750000
vt 0.875000 0.625000
vt 0.875000 0.750000
vt 0.875000 0.500000
vt 0.125000 0.500000
vt 0.375000 0.000000
vt 0.625000 0.000000
s 0
usemtl Material.001
f 209/240/151 210/241/151 204/242/151 203/243/151
f 203/243/152 204/242/152 208/244/152 207/245/152
f 211/246/153 212/247/153 206/248/153 205/249/153
f 205/249/154 206/248/154 202/250/154 201/251/154
f 209/252/155 211/246/155 205/249/155 201/253/155
f 212/247/156 210/254/156 202/255/156 206/248/156
f 208/244/156 204/256/156 210/254/156 212/247/156
f 203/257/155 207/245/155 211/246/155 209/252/155
f 207/245/157 208/244/157 212/247/157 211/246/157
f 201/258/151 202/259/151 210/241/151 209/240/151
o Cylinder
v 0.000000 -0.991370 -0.037267
v 0.000000 1.223686 -0.037267
v 0.021905 -0.991370 -0.030150
v 0.021905 1.223686 -0.030150
v 0.035443 -0.991370 -0.011516
v 0.035443 1.223686 -0.011516
v 0.035443 -0.991370 0.011516
v 0.035443 1.223686 0.011516
v 0.021905 -0.991370 0.030150
v 0.021905 1.223686 0.030150
v 0.000000 -0.991370 0.037267
v 0.000000 1.223686 0.037267
v -0.021905 -0.991370 0.030150
v -0.021905 1.223686 0.030150
v -0.035443 -0.991370 0.011516
v -0.035443 1.223686 0.011516
v -0.035443 -0.991370 -0.011516
v -0.035443 1.223686 -0.011516
v -0.021905 -0.991370 -0.030150
v -0.021905 1.223686 -0.030150
vn 0.3090 -0.0000 -0.9511
vn 0.8090 -0.0000 -0.5878
vn 1.0000 -0.0000 -0.0000
vn 0.8090 -0.0000 0.5878
vn 0.3090 -0.0000 0.9511
vn -0.3090 -0.0000 0.9511
vn -0.8090 -0.0000 0.5878
vn -1.0000 -0.0000 -0.0000
vn -0.0000 1.0000 -0.0000
vn -0.8090 -0.0000 -0.5878
vn -0.3090 -0.0000 -0.9511
vn -0.0000 -1.0000 -0.0000
vt 1.000000 0.500000
vt 1.000000 1.000000
vt 0.900000 1.000000
vt 0.900000 0.500000
vt 0.800000 1.000000
vt 0.800000 0.500000
vt 0.700000 1.000000
vt 0.700000 0.500000
vt 0.600000 1.000000
vt 0.600000 0.500000
vt 0.500000 1.000000
vt 0.500000 0.500000
vt 0.400000 1.000000
vt 0.400000 0.500000
vt 0.300000 1.000000
vt 0.300000 0.500000
vt 0.200000 1.000000
vt 0.200000 0.500000
vt 0.391068 0.444164
vt 0.250000 0.490000
vt 0.108932 0.444164
vt 0.021746 0.324164
vt 0.021746 0.175836
vt 0.108932 0.055836
vt 0.250000 0.010000
vt 0.391068 0.055836
vt 0.478254 0.175836
vt 0.478254 0.324164
vt 0.100000 1.000000
vt 0.100000 0.500000
vt -0.000000 1.000000
vt -0.000000 0.500000
vt 0.750000 0.490000
vt 0.891068 0.444164
vt 0.978254 0.324164
vt 0.978254 0.175836
vt 0.891068 0.055836
vt 0.750000 0.010000
vt 0.608932 0.055836
vt 0.521746 0.175836
vt 0.521746 0.324164
vt 0.608932 0.444164
s 0
usemtl Material.002
f 213/260/158 214/261/158 216/262/158 215/263/158
f 215/263/159 216/262/159 218/264/159 217/265/159
f 217/265/160 218/264/160 220/266/160 219/267/160
f 219/267/161 220/266/161 222/268/161 221/269/161
f 221/269/162 222/268/162 224/270/162 223/271/162
f 223/271/163 224/270/163 226/272/163 225/273/163
f 225/273/164 226/272/164 228/274/164 227/275/164
f 227/275/165 228/274/165 230/276/165 229/277/165
f 216/278/166 214/279/166 232/280/166 230/281/166 228/282/166 226/283/166 224/284/166 222/285/166 220/286/166 218/287/166
f 229/277/167 230/276/167 232/288/167 231/289/167
f 231/289/168 232/288/168 214/290/168 213/291/168
f 213/292/169 215/293/169 217/294/169 219/295/169 221/296/169 223/297/169 225/298/169 227/299/169 229/300/169 231/301/169
o Cube.002
v -0.036193 1.086557 0.321447
v -0.036193 1.452850 0.321447
v -0.036193 1.086557 -0.321447
v -0.036193 1.452850 -0.321447
v -0.001128 1.086557 0.321447
v -0.001128 1.452850 0.321447
v -0.001128 1.086557 -0.321447
v -0.001128 1.452850 -0.321447
vn -1.0000 -0.0000 -0.0000
vn -0.0000 -0.0000 -1.0000
vn 1.0000 -0.0000 -0.0000
vn -0.0000 -0.0000 1.0000
vn -0.0000 -1.0000 -0.0000
vn -0.0000 1.0000 -0.0000
vt 0.375000 0.000000
vt 0.625000 0.000000
vt 0.625000 0.250000
vt 0.375000 0.250000
vt 0.625000 0.500000
vt 0.375000 0.500000
vt 0.625000 0.750000
vt 0.375000 0.750000
vt 0.625000 1.000000
vt 0.375000 1.000000
vt 0.125000 0.500000
vt 0.125000 0.750000
vt 0.875000 0.500000
vt 0.875000 0.750000
s 0
usemtl Material.002
f 233/302/170 234/303/170 236/304/170 235/305/170
f 235/305/171 236/304/171 240/306/171 239/307/171
f 239/307/172 240/306/172 238/308/172 237/309/172
f 237/309/173 238/308/173 234/310/173 233/311/173
f 235/312/174 239/307/174 237/309/174 233/313/174
f 240/306/175 236/314/175 234/315/175 238/308/175
